<svg xmlns="http://www.w3.org/2000/svg" viewBox="0 0 56.31 109.06"><title>Recurso 10</title><g id="Capa_2" data-name="Capa 2"><g id="Layer_1" data-name="Layer 1"><path d="M5.88,109.06h0a5.92,5.92,0,0,1-3-.79A6.16,6.16,0,0,1,0,102.66L.43,35.75a13.84,13.84,0,0,1,2.3-7,18.05,18.05,0,0,1,6-5.9L45.81,1.39c2.77-1.6,5.61-1.83,7.67-.63a6.17,6.17,0,0,1,2.84,5.63L55.88,73.3a14.19,14.19,0,0,1-2.35,7.18,17.17,17.17,0,0,1-5.75,5.7l-37.2,21.48A9.56,9.56,0,0,1,5.88,109.06ZM50.49,4.28A5.38,5.38,0,0,0,48,5.11L10.84,26.58a13.61,13.61,0,0,0-4.47,4.47,9.7,9.7,0,0,0-1.65,4.73L4.29,102.7c0,.54.08,1.5.72,1.87s2,.16,3.42-.63l37.2-21.48a12.8,12.8,0,0,0,4.26-4.27,10,10,0,0,0,1.7-4.93L52,6.35c0-.55-.08-1.52-.7-1.88A1.63,1.63,0,0,0,50.49,4.28Z"/><path d="M15.14,43.46a.54.54,0,0,1-.27-1l28.18-16.3a.54.54,0,1,1,.54.93L15.4,43.38A.54.54,0,0,1,15.14,43.46Z"/><path d="M15.14,53.95a.54.54,0,0,1-.27-1l28.18-16.3a.54.54,0,1,1,.54.93L15.4,53.87A.53.53,0,0,1,15.14,53.95Z"/><path d="M15.14,64.43a.54.54,0,0,1-.27-1l28.18-16.3a.54.54,0,1,1,.54.93L15.4,64.36A.54.54,0,0,1,15.14,64.43Z"/><path d="M15.14,74.92a.54.54,0,0,1-.27-1l28.18-16.3a.54.54,0,0,1,.54.93L15.4,74.85A.54.54,0,0,1,15.14,74.92Z"/><path d="M31.91,77.31a.54.54,0,0,1-.27-1l11.41-6.6a.54.54,0,0,1,.54.93l-11.41,6.6A.53.53,0,0,1,31.91,77.31Z"/></g></g></svg>