<?xml version="1.0" encoding="utf-8"?>
<!-- Generator: Adobe Illustrator 21.0.0, SVG Export Plug-In . SVG Version: 6.00 Build 0)  -->
<svg version="1.1" id="Capa_1" xmlns="http://www.w3.org/2000/svg" xmlns:xlink="http://www.w3.org/1999/xlink" x="0px" y="0px"
	 viewBox="0 0 37.5 47.7" style="enable-background:new 0 0 37.5 47.7;" xml:space="preserve">
<style type="text/css">
	.st0{fill:none;stroke:#FFFFFF;stroke-miterlimit:10;}

</style>
<title>Recurso 3</title>
<g id="Capa_2">
	<g id="Layer_1">
		<path class="st0" d="M3,21.2v21.5c0,2.2,1.6,4.5,3.8,4.5h26.3c2.2,0,3.9-2.3,3.9-4.5V21.2H3z"/>
		<line class="st0" x1="2.5" y1="29.2" x2="36.5" y2="29.2"/>
		<line class="st0" x1="6.4" y1="29.2" x2="14.4" y2="21.1"/>
		<line class="st0" x1="15.4" y1="29.2" x2="23.5" y2="21.1"/>
		<line class="st0" x1="24.4" y1="29.2" x2="32.5" y2="21.1"/>
		<path class="st0" d="M27.5,0.9L3.3,11.3c-2,0.9-3.4,2.8-2.6,4.6l1.9,4.4L33.9,6.8L32,2.4C31.2,0.6,29.5,0,27.5,0.9z"/>
		<line class="st0" x1="6.1" y1="18.8" x2="10.3" y2="8.2"/>
		<line class="st0" x1="14.4" y1="15.2" x2="18.5" y2="4.7"/>
		<line class="st0" x1="22.6" y1="11.7" x2="26.8" y2="1.1"/>
	</g>
</g>
</svg>
