<?xml version="1.0" encoding="utf-8"?>
<!-- Generator: Adobe Illustrator 21.0.0, SVG Export Plug-In . SVG Version: 6.00 Build 0)  -->
<svg version="1.1" id="Capa_1" xmlns="http://www.w3.org/2000/svg" xmlns:xlink="http://www.w3.org/1999/xlink" x="0px" y="0px"
	 viewBox="0 0 45.8 43.8" style="enable-background:new 0 0 45.8 43.8;" xml:space="preserve">
<style type="text/css">
	.st0{fill:none;stroke:#FFFFFF;stroke-miterlimit:10;}
</style>
<title>Recurso 5</title>
<g id="Capa_2">
	<g id="Layer_1">
		<path class="st0" d="M45.2,16.7c-0.2-0.7-0.8-1.2-1.5-1.3l-13.2-1.9l-5.9-12c-0.5-0.9-1.6-1.3-2.5-0.8c-0.4,0.2-0.7,0.5-0.8,0.8
			l-5.9,12L2.1,15.4c-1,0.2-1.7,1.1-1.5,2.1c0.1,0.4,0.3,0.8,0.5,1l9.5,9.4L8.4,41.1c-0.2,1,0.5,2,1.5,2.2c0.4,0.1,0.8,0,1.2-0.2
			l11.8-6.2l11.8,6.2c0.9,0.5,2,0.1,2.5-0.8c0.2-0.4,0.3-0.8,0.2-1.2L35.2,28l9.6-9.3C45.3,18.2,45.5,17.4,45.2,16.7z"/>
	</g>
</g>
</svg>
