<svg xmlns="http://www.w3.org/2000/svg" viewBox="0 0 75.5 75.5"><title>Recurso 9</title><g id="Capa_2" data-name="Capa 2"><g id="Layer_1" data-name="Layer 1"><path d="M37.75,75.5A37.75,37.75,0,1,1,75.5,37.75,37.79,37.79,0,0,1,37.75,75.5Zm0-71.06A33.31,33.31,0,1,0,71.06,37.75,33.35,33.35,0,0,0,37.75,4.44Z"/><path d="M24.14,50.2l2.07-2.4a15,15,0,0,0,10.48,5.37V37.56q-2.72-.79-4.26-1.38A21.77,21.77,0,0,1,29,34.46a7.35,7.35,0,0,1-2.79-2.85,8.54,8.54,0,0,1-.9-4,8.62,8.62,0,0,1,3.24-6.94,13.25,13.25,0,0,1,8.14-2.91V12.62h2.83v5.09A15.54,15.54,0,0,1,50.4,22.88l-2.14,2.34a12.8,12.8,0,0,0-8.74-4.58V34.7a41.26,41.26,0,0,1,4.31,1.43,22.28,22.28,0,0,1,3.61,1.92,7.85,7.85,0,0,1,2.84,3.09,9.79,9.79,0,0,1,.94,4.45,10.06,10.06,0,0,1-2.8,7q-2.8,3.06-8.9,3.46v5H36.69v-5Q28.66,55.65,24.14,50.2Zm4.52-22.8a4.61,4.61,0,0,0,2.07,4.07,21.34,21.34,0,0,0,6,2.52V20.59a9.34,9.34,0,0,0-5.77,2.07A6,6,0,0,0,28.66,27.4ZM39.52,53.17q4.39-.33,6.37-2.5a7,7,0,0,0,2-4.85,5.53,5.53,0,0,0-2.14-4.7,20,20,0,0,0-6.21-2.85Z"/></g></g></svg>