<svg xmlns="http://www.w3.org/2000/svg" viewBox="0 0 81.49 71.82"><defs><style>.cls-1{isolation:isolate;} path{fill:white}</style></defs><title>Recurso 8</title><g id="Capa_2" data-name="Capa 2"><g id="Layer_1" data-name="Layer 1"><path  d="M39.85,71.82h0a4.44,4.44,0,0,1-2.11-.52h0l-.16-.09L2.39,50.76A5.19,5.19,0,0,1,0,46.08l0-16.3a12.16,12.16,0,0,1,5.59-9.7L38.57.9A5.21,5.21,0,0,1,43.86.58L79.1,21.06h0a5.19,5.19,0,0,1,2.34,4.68l0,16.3a12.17,12.17,0,0,1-5.59,9.7l-33,19.19A6.12,6.12,0,0,1,39.85,71.82Zm-.2-4a.46.46,0,0,0,.2,0,2.21,2.21,0,0,0,1.06-.36l33-19.19A8.18,8.18,0,0,0,77.49,42l0-16.3c0-.75-.21-1.15-.35-1.23h0L41.85,4a.45.45,0,0,0-.21,0,2.21,2.21,0,0,0-1.06.36L7.6,23.54A8.18,8.18,0,0,0,4,29.77l0,16.3c0,.75.21,1.15.35,1.23Z"/><g class="cls-1"><path  d="M45,62.57h0c-1.16,0-1.94-.94-1.94-2.34l0-10.86a6.18,6.18,0,0,1,2.84-4.92L72.32,29.17a2.86,2.86,0,0,1,1.42-.42c1.16,0,1.94.94,1.94,2.34l0,10.86a6.17,6.17,0,0,1-2.84,4.92L46.4,62.15A2.85,2.85,0,0,1,45,62.57ZM73.74,29.75a1.9,1.9,0,0,0-.92.29L46.35,45.32A5.24,5.24,0,0,0,44,49.37l0,10.86c0,.4.1,1.34.94,1.34h0a1.9,1.9,0,0,0,.91-.29L72.37,46a5.24,5.24,0,0,0,2.34-4.05l0-10.86C74.68,30.68,74.58,29.75,73.74,29.75Z"/></g><g class="cls-1"><path  d="M67.33,42l0-.89c0-1-.72-1.43-1.61-.92L49.39,49.58a3.52,3.52,0,0,0-1.6,2.77l0,.89c0,1,.72,1.43,1.61.92l16.31-9.42A3.52,3.52,0,0,0,67.33,42"/></g><g class="cls-1"><path d="M73.63,37.25l0-.8c0-.9-.64-1.27-1.43-.82l-1.58.77a3.14,3.14,0,0,0-1.42,2.46l0,.8c0,.9.64,1.27,1.43.82l1.58-.77a3.14,3.14,0,0,0,1.42-2.46"/></g></g></g></svg>