<?xml version="1.0" encoding="utf-8"?>
<!-- Generator: Adobe Illustrator 21.0.0, SVG Export Plug-In . SVG Version: 6.00 Build 0)  -->
<svg version="1.1" id="Capa_1" xmlns="http://www.w3.org/2000/svg" xmlns:xlink="http://www.w3.org/1999/xlink" x="0px" y="0px"
	 viewBox="0 0 45.5 49.4" style="enable-background:new 0 0 45.5 49.4;" xml:space="preserve">
<style type="text/css">
	.st0{fill:none;stroke:#282828;stroke-miterlimit:10;}
	.st1{fill:none;stroke:#282828;stroke-linecap:round;stroke-linejoin:bevel;}
</style>
<title>Recurso 1</title>
<g id="Capa_2">
	<g id="Layer_1">
		<path class="st0" d="M4.5,13.3H41c2.2,0,4,1.8,4,4v27.6c0,2.2-1.8,4-4,4H4.5c-2.2,0-4-1.8-4-4V17.3C0.5,15.1,2.3,13.3,4.5,13.3z"
			/>
		<path class="st0" d="M9.9,17.6h25.7c2.2,0,4,1.8,4,4v18.9c0,2.2-1.8,4-4,4H9.9c-2.2,0-4-1.8-4-4V21.6C5.9,19.4,7.7,17.6,9.9,17.6z
			"/>
		<path class="st0" d="M16.1,13.4c0.5-3.6,3.9-6,7.5-5.5c2.8,0.4,5.1,2.7,5.5,5.5"/>
		<line class="st1" x1="18.4" y1="9.1" x2="9.8" y2="0.5"/>
		<line class="st1" x1="26.8" y1="9.1" x2="35.4" y2="0.5"/>
	</g>
</g>
</svg>
