<svg xmlns="http://www.w3.org/2000/svg" viewBox="0 0 271.24 342.13"><defs><style>.cls-1,.cls-5{opacity:0.3;}.cls-2{isolation:isolate;}.cls-3,.cls-5{fill:#ccc;}.cls-4{fill:#fff;stroke-width:4px;}.cls-4,.cls-6{stroke:#999;stroke-miterlimit:10;}.cls-6{fill:#fffdfe;}.cls-6,.cls-8{opacity:0.5;}.cls-7{fill:#999;}.cls-9{opacity:0.3;}</style></defs><title>icon-error</title><g id="Capa_2" data-name="Capa 2"><g id="Layer_1" data-name="Layer 1"><g class="cls-1"><g class="cls-2"><path class="cls-3" d="M231.88,255.62c15.35,8.86,15.42,23.36.18,32.22l-82,47.65c-15.25,8.86-40.27,8.86-55.62,0L11.93,287.84c-15.35-8.86-15.43-23.36-.18-32.22l82-47.65c15.24-8.86,40.27-8.86,55.62,0Z"/></g></g><path class="cls-4" d="M4.09,96.44,2,188.55c-.16,8.55,2.82,18.08,7.7,26.41,4.49,8.55,11,16.12,18.34,20.51l79.27,47c14,8.35,36.29,7.39,50.52-.5l.46-.26,4.22-2.34L235.11,239l4.22-2.34.47-.26c14.22-7.89,26.84-26.34,27.15-42.61l2.29-91.74c.16-8.64-2.92-18.32-7.91-26.77-4.53-8.7-11.11-16.44-18.53-20.87L163.73,7.86c-14-8.35-36.31-7.4-50.53.49l-.46.26-4.22,2.34L35.93,51.24l-4.22,2.34-.46.26C17,61.73,4.39,80.17,4.09,96.44Z"/><path class="cls-5" d="M110.26,142.8c6.86,4.09,12.22,15.23,12.13,24.62l-.88,92.11c-.09,9.39-5.74,13.7-12.6,9.61L28.56,221.22c-6.86-4.09-12.4-14.93-12.31-24.32l1-92.26C17.3,95.26,23,90.8,29.9,94.88Z"/><path class="cls-6" d="M143.91,112.62c-6.31,3.53-17.46,2.7-24.78-1.61L47.32,68.69C40,64.38,39.18,58,45.49,54.47l73.87-41.34c6.31-3.53,17.3-3,24.62,1.34l71.88,42.45c7.32,4.31,8.22,10.83,1.92,14.35Z"/><g class="cls-2"><path class="cls-7" d="M74.16,63.89c-2.29-1.37-1.95-2.9-1.65-4.25s.54-2.37-1.13-3.37l1.28-.72c2.29,1.37,1.95,2.9,1.65,4.25s-.54,2.37,1.13,3.37,3.57.89,5.79.76,5-.29,7.29,1.08,1.94,2.9,1.64,4.25-.54,2.37,1.13,3.37,3.58.89,5.79.76,5-.29,7.28,1.08,1.95,2.9,1.65,4.25-.54,2.37,1.13,3.37,3.57.89,5.79.76,5-.29,7.28,1.08,1.94,2.9,1.64,4.25-.54,2.37,1.13,3.37,3.57.89,5.79.76,5-.29,7.28,1.08,1.94,2.9,1.64,4.25-.54,2.37,1.13,3.37l-1.28.72c-2.29-1.37-1.95-2.9-1.64-4.25s.53-2.38-1.13-3.37-3.57-.89-5.79-.76-5,.29-7.28-1.08S119.74,89.35,120,88s.54-2.37-1.13-3.37-3.57-.89-5.79-.76-5,.29-7.28-1.08-1.94-2.9-1.64-4.25.54-2.37-1.13-3.37-3.57-.89-5.78-.75-5,.29-7.29-1.08-1.94-2.9-1.64-4.25.54-2.37-1.13-3.37-3.58-.89-5.79-.76S76.45,65.26,74.16,63.89Z"/></g><polygon class="cls-7" points="101.03 43.07 100.98 48.85 91.01 48.7 91 49.75 100.97 49.89 100.92 55.67 102.72 55.7 102.78 49.92 112.75 50.06 112.76 49.02 102.78 48.87 102.84 43.09 101.03 43.07"/><polygon class="cls-7" points="144.68 70.51 144.63 76.28 134.66 76.14 134.65 77.19 144.62 77.33 144.57 83.11 146.38 83.13 146.43 77.36 156.4 77.5 156.41 76.45 146.44 76.31 146.49 70.53 144.68 70.51"/><ellipse class="cls-7" cx="202.49" cy="90.63" rx="6.17" ry="3.39" transform="translate(-18.49 110.21) rotate(-29.18)"/><g class="cls-8"><ellipse class="cls-3" cx="218.37" cy="81.76" rx="6.17" ry="3.39" transform="translate(-12.15 116.83) rotate(-29.18)"/></g><g class="cls-9"><path class="cls-3" d="M45.66,54.54c-4.5,2.52-5.35,6.48-2.82,10.11a8,8,0,0,1,3.93-4.27L120.64,19c6.31-3.53,17.3-3,24.62,1.34l71.88,42.45A14.59,14.59,0,0,1,221.87,67c1.07-3.3-.94-7.15-5.83-10L144.16,14.54c-7.32-4.31-18.31-4.87-24.62-1.34Z"/></g></g></g></svg>