<?xml version="1.0" encoding="utf-8"?>
<!-- Generator: Adobe Illustrator 21.0.0, SVG Export Plug-In . SVG Version: 6.00 Build 0)  -->
<svg version="1.1" id="Capa_1" xmlns="http://www.w3.org/2000/svg" xmlns:xlink="http://www.w3.org/1999/xlink" x="0px" y="0px"
	 viewBox="0 0 35.8 35.8" style="enable-background:new 0 0 35.8 35.8;" xml:space="preserve">
<style type="text/css">
	.st0{fill:none;stroke:#282828;stroke-miterlimit:10;}
</style>
<title>Recurso 4</title>
<g id="Capa_2">
	<g id="Layer_1">
		
			<ellipse transform="matrix(0.9978 -6.662219e-02 6.662219e-02 0.9978 -1.1514 1.231)" class="st0" cx="17.9" cy="17.9" rx="17.4" ry="17.4"/>
		<polygon class="st0" points="22.1,24.5 13.6,24.4 11,16.3 17.9,11.3 24.8,16.3 		"/>
		<path class="st0" d="M17.9,6.4l6.4-4.7c-4.1-1.7-8.8-1.7-12.9,0L17.9,6.4z"/>
		<path class="st0" d="M5.2,6.2L5,6.2c-2.9,3.2-4.5,7.3-4.5,11.5l6-3.1L5.2,6.2z"/>
		<path class="st0" d="M10,33.3l-0.8-5.1l-5.9-0.9C4.9,29.9,7.3,32,10,33.3z"/>
		<path class="st0" d="M25.4,33.5c2.9-1.4,5.4-3.6,7.1-6.3l-6.3,1L25.4,33.5z"/>
		<path class="st0" d="M29.9,14.6l5.3,2.7c0-0.2,0-0.4,0-0.7c-0.2-3.7-1.7-7.2-4-10L29.9,14.6z"/>
		<line class="st0" x1="6.5" y1="14.6" x2="11" y2="16.3"/>
		<line class="st0" x1="17.9" y1="6.9" x2="17.9" y2="11.9"/>
		<line class="st0" x1="24.8" y1="16.3" x2="29.9" y2="14.6"/>
		<line class="st0" x1="22.1" y1="24.5" x2="26.2" y2="28.2"/>
		<line class="st0" x1="13.6" y1="24.4" x2="9.2" y2="28.2"/>
	</g>
</g>
</svg>
